# xmcd
#
# Track frame offsets:
# 180
# 5072
# 20434
# 35203
# 53544
# 69793
# 82589
# 93843
# 106075
# 122443
# 134105
# 147339
#
# Disc length: 2178 seconds
#
#
# Revision: 0
# Processed by: cddbd v1.4PL0 Copyright (c) Steve Scherf et al.
# Submitted via: FreeRIP 2.51 
#
DISCID=9208800c
DTITLE=Zlap - Ternaire Madness
DYEAR=2001
DGENRE=Blues
TTITLE0=Intro (Mad Marc)
TTITLE1=Ternaire Madness
TTITLE2=The blues will never leave you
TTITLE3=Pour le milleur
TTITLE4=L'imparfaite
TTITLE5=Clara
TTITLE6=Down on the rail road
TTITLE7=Charly Charly
TTITLE8=Got no time
TTITLE9=Blues Bend Boogie
TTITLE10=Mississippi Strut
TTITLE11=Run me down
EXTD=
EXTT0=
EXTT1=
EXTT2=
EXTT3=
EXTT4=
EXTT5=
EXTT6=
EXTT7=
EXTT8=
EXTT9=
EXTT10=
EXTT11=
PLAYORDER=
